<svg
   xmlns="http://www.w3.org/2000/svg"
   id="svg3157"
   height="520"
   width="550"
   version="1.1">
  <g
     id="layer1"
     transform="matrix(1.0020524,0,0,1.0020524,0.25102907,-0.17691186)">
    <g
       id="gb"
       transform="matrix(0.06543739,0,0,0.06544988,-100.0242,-11.29837)">
      <path
         d="m 241.125,198.78125 c -0.10412,0.0233 -0.16722,0.0902 -0.21875,0.1875 -0.20611,0.38931 -0.45014,1.18559 -0.65625,1.4375 -0.20612,0.25191 -0.0625,-0.4251 -0.0625,-0.5625 0,-0.1374 -0.57299,-0.28101 -0.6875,0.0625 -0.1145,0.34351 -0.0127,0.66054 -0.21875,0.84375 -0.20612,0.18321 -0.25429,-0.002 -0.4375,0.59375 -0.1832,1.00763 -0.24761,1.41054 0.1875,1.59375 0.4351,0.18321 0.4981,-0.13788 0.75,-0.6875 0.25191,-0.54962 -0.0479,-0.49809 -0.0937,-0.75 -0.0458,-0.2519 0.0482,-0.2877 0.4375,-0.5625 0.38931,-0.27481 0.61474,-0.11045 0.84375,-0.15625 0.22901,-0.0458 0.9375,-1.4585 0.9375,-1.6875 0,-0.17175 -0.46887,-0.38227 -0.78125,-0.3125 z m -3.34375,2.1875 c -0.41221,0 -0.26694,0.66675 -0.65625,0.78125 -0.38931,0.11451 -0.32109,-0.78912 -0.6875,-0.125 -0.36642,0.66412 -0.19196,0.57324 -0.0312,1.03125 0.16031,0.45803 0.26884,0.16031 0.40625,0 0.1374,-0.1603 0.20865,-0.0329 0.0937,0.5625 -0.1145,0.59542 -0.57896,0.96469 -0.28125,1.125 0.29771,0.1603 0.43965,0.17271 0.53125,-0.125 0.0916,-0.29771 0.40172,0.37929 -0.125,0.5625 -0.52672,0.18321 -1.22328,-0.33945 -1.75,-0.15625 -0.52672,0.18321 -0.61641,0.72519 -0.25,1 0.36641,0.27481 0.67104,0.41651 0.96875,0.1875 0.29771,-0.229 0.2209,0.25644 0.3125,0.53125 0.0916,0.27481 0.1002,0.54342 0.375,0.0625 0.2748,-0.48091 0.90386,-0.33874 0.46875,0.875 -0.43511,1.21374 -0.52099,1.58993 -0.75,2.09375 -0.229,0.50381 -0.51861,0.46064 -0.3125,0.78125 0.87022,0.48092 0.78984,-0.35663 1.15625,-0.90625 0.36641,-0.54961 0.52314,-1.44203 0.84375,-1.96875 0.32061,-0.52672 -0.26066,-0.54628 -0.0312,-1.1875 0.22901,-0.64122 0.36069,-0.0255 0.75,-0.78125 0.38932,-0.75573 0.69346,-1.28125 0.28125,-1.28125 -0.4122,0 -0.44585,-0.26288 -0.46875,-0.8125 -0.0229,-0.54962 -0.22734,-0.59971 -0.59375,-0.1875 -0.36641,0.41222 -0.3769,-0.15267 -0.125,-1 0.25191,-0.84733 0.28721,-1.0625 -0.125,-1.0625 z M 224.1875,215.1875 c -0.0887,0.0258 -0.15315,0.12405 -0.1875,0.25 -0.1374,0.54962 -0.0768,0.88526 0.3125,0.65625 0.38932,-0.229 0.63956,-0.13931 0.59375,0.25 -0.0458,0.38932 0.3583,0.48351 0.3125,0.0937 -0.0458,-0.38932 -0.33564,-0.74189 -0.65625,-1.0625 -0.1603,-0.1603 -0.28626,-0.21326 -0.375,-0.1875 z m 2.96875,0.875 c -0.48092,0.0458 -0.3354,0.24594 -0.3125,0.40625 0.0229,0.1603 0.0477,0.0668 -0.25,0.25 -0.29771,0.1832 -0.4709,0.17104 -0.5625,0.46875 -0.0916,0.29771 0.12309,0.49356 0.375,0.21875 0.25191,-0.27481 0.1126,-0.5291 0.25,-0.4375 0.13741,0.0916 0.0167,0.004 0.0625,0.1875 0.73283,-0.0229 0.54389,-0.31679 0.75,-0.5 0.2061,-0.1832 -0.2438,0.12691 -0.3125,-0.125 -0.0687,-0.25191 0.48091,-0.51455 0,-0.46875 z m -3.6875,0.8125 c -0.034,0.0204 -0.0651,0.0506 -0.0937,0.125 -0.1145,0.29771 -0.0666,0.32729 0.0937,0.625 0.32061,0.41222 0.50644,0.62905 0.78125,0.46875 0.27481,-0.16031 0.5644,-0.4585 0.3125,-0.6875 -0.25191,-0.22901 -0.53555,0.0248 -0.71875,-0.25 -0.13741,-0.20611 -0.27302,-0.34244 -0.375,-0.28125 z m -1.28125,0.375 c -0.29306,0.058 -0.59709,0.32252 -0.90625,1.25 -0.41222,1.23664 -0.0269,1.3354 0.15625,1.3125 0.18321,-0.0229 0.54986,-0.21231 0.34375,0.0625 -0.2061,0.2748 0.14623,0.53125 0.71875,0.53125 0.57251,0 0.97925,-0.44156 1.09375,-0.28125 0.11451,0.1603 -0.0644,0.30869 0.1875,0.8125 0.25191,0.50382 0.66269,0.3769 0.9375,0.125 0.27481,-0.25191 0.91031,-0.45229 0.75,-0.75 -0.1603,-0.29771 -0.76264,0.51026 -0.96875,0.28125 -0.20611,-0.22901 0.375,-0.625 0.375,-0.625 0,0 -0.70635,0.25451 -0.84375,0.0937 -0.13741,-0.1603 0.42486,-0.23974 0.21875,-0.46875 -0.2061,-0.229 -0.39599,0.11191 -0.625,-0.0937 -0.22901,-0.2061 -0.71875,-0.15625 -0.71875,-0.15625 0,0 0.43774,-0.2605 0.78125,-0.375 0.34352,-0.11451 0.17438,-0.65052 -0.71875,-1.40625 -0.1603,-0.22901 -0.11069,-0.2667 -0.5,-0.3125 -0.0973,-0.0114 -0.18356,-0.0193 -0.28125,0 z m -1.46875,2.78125 c -0.0834,0.0182 -0.15005,0.0818 -0.21875,0.15625 -0.2748,0.29771 -0.44921,0.48545 0.0312,0.53125 0.48092,0.0458 0.125,0.17104 0.125,0.46875 0.1832,0.73282 0.23998,1 0.8125,1 0.57252,0 0.81441,0.13717 0.5625,-0.34375 -0.25191,-0.48091 -0.0794,-0.96279 -0.46875,-1.375 -0.29199,-0.30916 -0.59363,-0.49225 -0.84375,-0.4375 z M 201.25,221.375 c -0.0821,-0.0117 -0.76442,0.6125 -0.84375,0.625 -0.55529,0.0872 -0.57005,0.30837 -1.0625,0.71875 -0.0938,0 -0.4687,0.12495 -0.5625,0.21875 -0.93801,0.0938 -1.2816,0.34599 -1.75,0.5 -0.2814,0.2814 0.0313,1.125 -0.0625,1.125 -1.3132,-0.2814 -1.8825,-1.24478 -2.5,0.46875 -0.0938,0.37519 0,0.74979 0.1875,1.125 0,0.0938 0.37505,9.6e-4 0.28125,0.0937 -0.1876,0.18761 -0.93755,0.0936 -0.84375,0.375 0.2814,0.75041 1.59986,1.28061 1.59375,1.5 -0.2814,0.75041 -1.87479,-0.37536 -2.25,0.28125 -0.37519,0.5628 0.54028,1.92553 0.96875,2.125 0.44388,0.20665 1.21927,-0.7251 1.40625,-1.03125 0.18698,-0.30616 -0.29644,-0.65614 0.0312,-0.84375 0.18761,-0.1876 0.43733,0.7188 0.71875,0.625 0.5628,-0.28142 -0.53086,-1.43771 0.0312,-1.0625 0.46901,0.469 0.95902,0.44769 1.4375,0.25 1.46232,-0.56676 1.31245,-2.781 1.40625,-3.25 0.1876,-0.5628 1.49976,-1.31209 1.96875,-2.0625 -0.18759,-0.469 0.31274,-1.68745 -0.15625,-1.78125 z m 22.59375,0.15625 c -0.38931,0 -0.31059,0.21875 -0.5625,0.21875 -0.25191,0 -0.4561,0.18773 -0.25,0.53125 0.16031,0.2748 -0.25811,0.58969 0.0625,0.75 0.32061,0.1603 0.3917,0.19561 0.4375,-0.125 0.0458,-0.32062 0.0148,-0.52314 0.3125,-0.84375 0.29771,-0.32061 0.38931,-0.53125 0,-0.53125 z m -14.28125,0.375 c -0.26711,0.0827 -0.86425,1.17429 -1.125,1.4375 -0.0938,0.2814 0.33315,0.31087 0,0.6875 -0.33314,0.37664 -0.62827,0.10716 -0.71875,1.1875 -0.0185,0.5399 0.56269,0.56225 0.1875,1.03125 -0.46901,0.5628 -0.40589,0.31335 -1.0625,0.0312 -0.2814,0 -0.8125,-0.43765 -0.8125,-0.15625 -0.0938,0.65661 0.53145,1.78091 0.15625,2.4375 -0.18761,0.46901 -0.96875,-0.87526 -0.96875,-0.40625 -0.0938,1.21941 1.18765,1.31184 0.90625,2.53125 0,0.0938 -0.90545,0.40671 -2.40625,-0.4375 -1.12562,-0.65661 0.40666,1.5624 -0.34375,1.75 -0.5628,0.18761 -0.37474,-1.5939 -0.84375,-1.3125 -0.73409,0.31906 -0.93734,0.89856 -0.21875,1.5625 1.30867,1.20912 -0.0473,0.33164 -0.4375,0.65625 -0.395,0.32857 0.25685,1.06474 0.40625,1.375 0.4602,0.56547 0.46611,1.30311 -0.6875,-0.125 -0.25779,-0.31913 -0.4449,0.30209 -0.59375,0.8125 -0.10505,0.3602 0.27131,0.67198 -0.0625,1.625 -0.0695,0.19834 0.32168,0.30097 0.8125,0.25 0.47723,-0.0496 -0.32025,0.57805 -0.4375,0.71875 -0.11725,0.1407 -0.64961,0.53483 -1.1875,0.3125 -0.22047,-0.0911 -0.10794,-0.8561 -0.71875,-1 -0.38153,-0.0899 -0.7303,-0.74973 -0.625,-1.21875 0.0803,-0.35769 0.87857,-2.75981 -0.0312,-3.65625 -0.0952,-0.0937 -0.86827,0.11126 -1.03125,0.375 -0.16297,0.26374 0.27375,0.59003 0.0937,0.875 -0.3586,0.56994 -0.27866,0.55384 -0.59375,0.75 -0.12748,0.0794 -0.61805,-0.33494 -0.65625,-0.71875 -0.0827,-0.83083 -0.60688,-0.65053 -0.53125,-0.15625 0.11555,0.75518 0.20821,1.00389 -0.0625,1.03125 -0.13536,0.0137 -0.47982,-0.0955 -0.5,-0.375 -0.0285,-0.39451 -0.27471,-0.0537 -0.4375,0.25 -0.26383,0.49217 -0.44258,0.73159 0.5,1.5625 0.2877,0.25362 0.61318,-0.30399 0.6875,-0.375 -0.11634,0.86776 0.7227,0.59333 0.75,0.71875 0.0921,0.42315 -0.66011,0.20059 -0.625,0.65625 0.0702,0.91132 0.93817,1.46286 1.125,1.46875 1.00388,0.0317 0.84931,0.395 0.9375,0.6875 0.1841,0.61062 0.29696,-0.68869 0.65625,-0.5 0.50753,0.26654 0.75701,0.39814 0.625,0.53125 -0.38619,0.38941 -0.57899,0.40187 -0.6875,0.5625 -0.30578,0.45263 -0.52255,0.96081 -0.46875,1 0.43243,0.31498 2.79695,-1.54705 2.65625,-1.21875 0,0 1.02953,0.86156 0.90625,1.125 -0.12328,0.26345 -0.91117,-0.76065 -1.25,-0.59375 -0.75042,0.18761 -1.3125,1.875 -1.3125,1.875 -0.33633,0.61081 0.6877,0.68699 0.3125,1.625 -0.18761,0.37521 -2.96844,-0.59415 -3.53125,0.15625 -0.7504,1.1256 5.50046,0.96856 4.65625,1.34375 -0.65661,0.28142 -1.40584,-0.0937 -2.15625,-0.0937 -0.2814,0 -1.0313,-0.2814 -0.9375,0 0.0789,0.39454 0.21922,0.7071 0.375,0.96875 0.32139,0.45371 0.41411,0.57069 0.83081,0.98895 0.197,0.19775 0.18824,0.16665 0.29419,0.2923 0.80981,0.15571 1.76305,-1.07194 2.90625,-1.6875 0.5628,-0.2814 0.4684,-0.46851 1.125,-0.9375 0.2814,-0.2814 1.03135,-0.75015 0.84375,-0.46875 -0.18761,0.5628 -1.125,0.65593 -1.125,1.21875 0,0.37519 1.50015,0 1.21875,0.28125 -0.0938,0 -3.93784,0.65554 -3.28125,1.96875 0.2814,0.469 1.3125,0.46849 1.3125,0.9375 0,0.46899 -0.84349,-0.56255 -1.3125,-0.46875 -0.46899,0.0938 -0.45886,0.8518 -1.5625,1.4375 -0.32391,0.17945 -0.63933,0.76098 -0.59375,1.28125 0.0228,0.26013 0.3914,0.48985 0.25,0.71875 -0.27659,0.44773 0.37118,0.66031 0.21875,0.90625 -0.15202,0.24594 -0.21872,-0.28125 -0.46875,0 -0.19332,0.3283 -0.93537,1.15112 -0.90625,1.375 0.0274,0.21055 0.40248,-0.40734 0.9375,-0.75 -0.35398,0.43456 -0.86726,1.17963 -1.0625,1.5 0.21901,0.1564 0.1872,-0.40636 0.75,-0.21875 0.0995,0.32721 -1.0292,0.99574 -0.75,1.53125 0.1876,0.46899 0.90615,-0.28149 1.09375,0.1875 l -1.59375,1.28125 c -0.5628,0.75041 -0.34345,1.81209 -0.90625,2.5625 -0.2814,0.469 -1.59405,1.2186 -1.03125,1.5 0.7504,0.2814 1.59339,0 2.25,-0.375 0.18759,-0.0938 -0.37506,-0.46864 -0.28125,-0.65625 0.2814,-0.7504 1.0311,-1.1246 1.3125,-1.875 0.0938,-0.18761 -0.0938,-0.56235 0,-0.84375 0,-0.2814 0.1874,-0.56239 0.375,-0.75 0.2814,-0.2814 0.81245,-0.12479 0.90625,-0.5 0.18761,-1.03181 -0.47275,-1.55535 -0.0625,-3 0.25015,0.4686 2.39666,-1.96905 3.75,-2.21875 -2.57321,1.84182 -3.29389,2.57513 -3.5,3.59375 -0.0234,0.1876 0.209,1.43004 0.625,1.21875 0.6361,-0.32307 0.81387,0.14794 0.40625,0.5625 -0.16844,0.17131 0.26646,0.48614 0.75,1.25 0.2635,0.41625 -0.0168,-0.84278 0.375,-1.75 0.67276,-1.55791 1.42141,-1.71825 1.9375,-1.625 0,0 2.8502,2.53416 0.625,1.21875 -0.9358,-0.58131 -1.13528,-0.56053 -1.625,0.0312 -0.2814,0.75041 0.0356,0.96219 -0.0625,1.6875 -0.0938,0.2814 -0.6563,0.2811 -0.5625,0.5625 0.0938,0.18759 1.87521,2.3434 1.5,3 -0.18761,0.37521 -0.8436,0.37485 -1.125,0.65625 -3.00162,2.72023 1.12632,-0.47021 -1.3125,2.25 -1.3132,1.50081 -2.01142,1.34259 -1.59375,3.5 0.0234,0.11725 -0.21071,0.25718 -0.40625,-0.125 -0.19554,-0.38218 -0.35325,-1.28708 -0.4375,-1.28125 -0.45474,0.0315 -0.78847,0.27967 -0.34375,1.9375 0.22229,0.65676 0.90177,2.97579 1.21875,2.9375 0.31699,-0.0383 0.24903,-2.406 0.46875,-2.59375 0.43945,-0.37549 0.48364,-0.50096 1.84375,1.28125 0.3752,0.5628 0.84355,2.0628 1.21875,1.5 0.93801,-1.50081 -0.84446,-3.0939 0.46875,-2.8125 1.03181,0.1876 1.03099,1.59345 1.5,2.15625 0.0938,0.0938 0.28121,0.18825 0.375,0.0937 0.18761,-0.18759 0.0936,-0.8438 0.375,-0.75 0.2814,0.0938 -0.2813,0.56235 -0.1875,0.84375 0.0938,0.1876 0.3749,0.18825 0.5625,0.0937 0.469,-0.1876 0.7497,-0.65614 1.3125,-0.84375 0.46901,-0.0938 1.03101,0.28205 1.5,0.0937 0.5628,-0.18759 0.84345,-0.93739 1.40625,-1.125 0.46901,-0.0938 0.84355,0.37495 1.21875,0.46875 0.5628,0.0938 1.56259,-0.53087 1.375,0.0312 -0.0938,0.32831 -0.37626,0.55997 -0.71875,0.71875 -0.31402,-0.19318 -0.90948,-0.34993 -1.09375,-0.28125 -0.49145,0.18315 0.29893,0.2666 -0.0312,0.625 -0.18761,0.0938 -0.37485,-0.0937 -0.5625,-0.1875 -0.0938,0 -2.8438,3.06188 -2.75,4.1875 l 1.125,2.34375 c 0.24688,0.51438 -0.71935,1.37479 0.40625,1.75 0.37521,0.0938 0.84365,-1.03146 1.03125,-0.65625 0.28141,0.75042 -1.34421,2.3125 -0.5,2.3125 1.31321,-0.0938 2.62495,-1.96952 2.71875,-0.5625 0.0938,0.7504 -0.43735,0.78089 -0.71875,1.4375 -0.2814,0.65661 0.4688,0.3747 0.375,0.9375 0,1.1256 -2.18585,-1.04075 -1.875,2.3125 0.1876,0.5628 1.21864,-0.0628 1.40625,0.5 0.0938,0.46901 -0.84354,0.18735 -1.21875,0.46875 -0.46901,0.37521 -1.03121,0.84345 -1.125,1.40625 -0.0477,0.26228 0.38597,1.43069 0.40625,1.71875 0.005,0.072 0.38867,0.92737 0.625,1.1875 0.0808,0.089 0.35938,0.28146 0.59375,0.3125 0.068,0.009 0.25386,-0.1962 0.46875,-0.25 0.99502,-0.24916 0.45091,0.0654 0.21875,0.15625 -0.24774,0.097 -0.5307,0.36857 -0.6875,0.40625 -0.60386,0.14508 -0.97936,-0.35554 -1,-0.375 -0.0826,-0.0778 -0.5458,-1.60524 -0.5,-1.46875 -0.51949,-0.1402 -0.92548,-0.0793 -0.96875,0.0937 -0.18761,0.65661 0.84405,1.68729 0.28125,2.0625 -0.5628,0.37521 -0.68725,-0.68726 -1.15625,-1.15625 -0.61414,-0.55272 -0.81179,0.21913 -2.125,0.0312 -0.65659,-0.0938 -1.09339,-0.7812 -1.75,-0.875 -0.2814,-0.0938 0.15641,0.43745 -0.0312,0.53125 -0.89485,0.31959 -1.60133,0.45153 -2.0625,0.40625 l -1.8125,0.9375 c -0.032,0.0413 0.0398,0.3763 -0.15625,0.71875 -0.16798,0.29353 -0.4017,0.39207 -0.875,0.65625 -0.94164,0.52557 -1.54699,0.57635 -2,0.96875 -0.52735,0.4568 -0.9743,0.59551 -0.875,0.71875 0.0252,0.0579 0.0816,0.24159 0.1875,0.28125 0.0826,0.0309 0.69111,-0.31927 1.03125,-0.21875 0.21983,0.065 0.39623,0.58697 0.71875,0.46875 0.13077,-0.0479 -0.078,-0.8866 1.1875,-0.96875 1.09578,-0.0711 1.44172,0.34589 1.40625,0.59375 -0.17225,1.20365 0.62409,1.09171 0.5,1.84375 -0.12409,0.75203 -0.80869,0.96889 -0.84375,1.5625 -0.0701,1.18721 0.28129,0.71865 0.3125,1.46875 -0.5628,1.31319 -2.06169,2.65604 -3.5625,3.03125 -1.344,0.6563 -1.795,0.23002 -2.25,0.34375 -0.87536,0.2188 -1.6247,0.59364 -2.1875,0.78125 -0.97839,-0.62566 -1.21356,0.38574 -1.9375,0.40625 -0.74211,0.021 -1.34375,0.54637 -1.21875,0.5625 1.65625,0.21911 1.59355,0.4997 1.53125,1.1875 -0.04,0.23837 -1.288,0.43669 -1.125,0.6875 0.43637,0.67148 1.83052,0.48676 1.90625,0.75 -0.5628,0.0938 -1.4686,-0.15655 -0.90625,0.28125 -0.1876,0.37521 0.24975,0.74995 0.71875,0.84375 0.5628,0.1876 0.031,-0.62489 1.375,-0.15625 0.25051,0.0873 0.43735,-0.5625 0.71875,-0.5625 2.25122,-0.6566 1.40589,0.0938 2.0625,0 0.1876,0 0.2812,-0.56259 0.375,-0.375 0.16408,0.32035 -0.0371,1.0957 0.46875,1.40625 0.50585,0.31055 1.71876,0.16407 1.6875,0.40625 -0.0625,0.48434 -2.60943,0.0468 -1.6875,1 0.93801,0.46899 2.53085,-0.68791 3.28125,0.0625 0.8442,0.84421 0.39753,2.43942 1.46875,2.84375 3.31401,1.25087 2.31124,-0.24965 4.53125,-0.84375 0.2814,-0.0938 0.49985,0.3125 0.78125,0.3125 0.46899,-0.0938 0.74974,-0.21866 1.21875,-0.40625 0.37521,-0.28142 1.8753,-0.18786 1.3125,0.46875 -0.5628,0.65661 -2.99565,1.40136 -3.375,1.71875 -0.48259,0.40378 3.7e-4,1.46849 -0.5625,1.9375 -0.89111,0.70351 -0.47921,-0.24491 -2.15625,-0.0312 -1.56221,0.1988 -0.84522,-0.93288 -3.96875,-1.28125 -2.62642,-0.46901 -3.18701,-0.0906 -3.34375,0.625 -0.0716,0.3269 0.37254,0.78685 0.125,0.90625 -0.40205,0.19393 -0.84673,0.30848 -1.59375,0.625 -0.37521,-0.0938 -0.53106,-0.81255 -0.90625,-0.71875 -0.65661,0.2814 -0.8436,2.40604 -1.125,2.78125 -0.46901,0.5628 -1.0935,0.65601 -1.5625,1.125 -0.2814,0.18761 -0.2811,0.59365 -0.5625,0.78125 -0.2814,0.0938 -1.43735,0.21819 -1.71875,0.40625 -0.65661,0.469 -0.15589,0.71845 -0.8125,1.28125 -0.1876,0.0938 -0.46864,0.0312 -0.65625,0.21875 -0.1876,0.0938 -0.0311,0.46871 -0.21875,0.5625 -0.2814,0.37521 -1.70039,1.45711 -2.90625,1.1875 -0.0938,0 -1.96875,0.31214 -1.96875,0.96875 0,0.51591 0.06,0.80955 0.71875,0.75 0.32936,-0.0298 0.66417,-0.449 1.09375,-0.5 0.42958,-0.051 0.95305,0.2655 1.09375,0.5 0.37521,0.46901 0.24965,1.37495 0.8125,1.46875 0.37521,0 1.03115,-0.43725 1.21875,-0.90625 -0.89263,-0.27551 -0.54565,-0.39087 -0.0625,-0.46875 0.64825,-0.10448 1.6872,-0.87489 2.25,-1.0625 0.37519,-0.1876 0.18724,-1.06245 0.65625,-1.15625 1.3132,-0.37519 2.90565,0.7811 4.03125,1.0625 0.91457,0.21105 0.35949,-0.40038 0.21875,-0.59375 0.016,0.006 0.0273,-0.0211 0.0625,0 0.7504,0.3752 2.71815,3.12524 3.84375,2.65625 1.40701,-0.65661 1.49801,-2.999 2.96875,-4.3125 2.57949,-1.10864 4.81184,-0.93815 6.03125,0.28125 0.46901,0.37521 1.06239,0.87475 1.25,1.34375 0.0938,0.2814 0.0307,0.90636 0.21875,0.71875 0.2814,-0.469 -0.1566,-1.0936 0.40625,-1.375 0.469,-0.18759 1.5935,0.5311 2.0625,0.8125 l 0.5,0.125 c 0.27268,0.0695 0.9687,0.0627 1.0625,-0.21875 0.24955,-1.08197 -0.9689,-0.84349 -0.6875,-1.3125 0.1876,-0.2814 5.4062,0.81301 5.5,-0.125 0.0938,-0.5628 -0.90646,-1.06224 -0.53125,-1.53125 0.2814,-0.2814 0.78063,1.49979 1.90625,1.875 0.2814,0.0938 -0.25035,-1.37546 0.40625,-0.53125 0.1876,0.2814 -5.6e-4,0.59371 0.28125,0.6875 0.2814,0.0938 0.24985,-0.68755 0.53125,-0.59375 0.2814,0 0.11372,0.25564 -0.0937,0.71875 0.0938,0.1876 0.34365,0.18784 0.53125,0.0937 0.18761,-0.2814 -9e-5,-1.03144 0.5625,-0.65625 0.93801,0.65661 -0.25005,0.18726 -0.15625,0.65625 0.2814,1.03181 4.43714,0.2187 5.09375,0.3125 0.8442,0.1876 3.06204,1.5625 3.90625,1.5625 0.5628,0 0.46849,-0.84365 0.9375,-1.03125 1.0318,-0.469 1.56195,0.12536 2.59375,-0.53125 1.03181,-0.65661 1.57877,0.28276 2.125,0.0312 0.469,-0.1876 0.18729,-1.24985 0.5625,-1.53125 0.93801,-0.46901 2.8436,-0.24945 3.125,-1.1875 0.20149,-0.79347 -0.172,-0.76956 -0.0312,-1.75 0.0938,-0.37519 0.78146,-0.62496 0.40625,-0.71875 -1.40701,-0.5628 -2.26617,-0.3162 -3.96875,-0.0625 -0.87715,-0.20943 -0.95976,-0.29876 -1.3125,-0.6875 -0.67836,-0.01 -0.95562,-0.29762 -1.15625,-0.59375 0.21335,-0.1104 0.46361,-0.22207 0.53125,-0.28125 0.20767,-0.18171 0.32408,0.0265 0.6875,0.15625 0.36342,0.12979 0.0308,-0.28704 -0.125,-0.46875 -0.15575,-0.18171 -1.20437,-0.28125 -1.59375,-0.28125 -0.12979,0 -0.22405,0.0716 -0.3125,0.15625 -0.18274,-0.0374 -0.40083,-0.038 -0.71875,0.0312 -0.2814,-0.1876 0.6561,-0.5312 0.9375,-0.625 1.03181,-0.37521 2.8121,0.87565 3.5625,-0.34375 0.2814,-0.46901 0.71896,-1.46854 0.34375,-1.84375 -0.37521,-0.469 -2.06267,0.71276 -1.78125,-0.1875 0.73546,-0.39762 1.44131,-0.82512 2.25,-1.09375 0.0938,0 0.31245,0.59375 0.40625,0.59375 0.2814,0.18761 0.31235,0.2813 0.59375,0.1875 2.52416,-0.69415 1.38822,-0.71481 0.625,-1.15625 l 0.5,-0.46875 -1,-0.25 c 0.009,-0.10701 0.0282,-0.21184 0.0937,-0.34375 0.1876,-0.46901 0.99969,0.59386 1.5625,0.40625 0.6842,-0.1407 0.82444,-0.65943 1.3125,-1.125 0.48806,-0.46556 1.03585,-0.89038 1.1875,-1.59375 0.29462,-1.36652 1.1718,-2.35894 1.3125,-3.15625 0.83419,-6.3372 -4.24828,-6.59351 -7.4375,-7.0625 -1.96981,-0.2814 -0.46773,0.65559 -2.34375,1.875 -0.2814,0.18761 -0.20472,-0.43685 -1.03125,-0.5625 -0.39344,-0.0598 -0.37479,-0.8436 -0.75,-1.125 -0.18761,-0.18759 -0.93755,0.18695 -0.84375,-0.0937 1.61293,-1.67009 1.62429,-0.84304 2.9375,-2.15625 0.98753,-1.21113 -0.0161,-4.62147 -1.78125,-5.6875 -0.41784,-0.32373 -1.31194,-1.64183 -1.59375,-1.90625 -0.11197,-0.10506 -0.63401,-0.57875 -1.375,-0.4375 -0.53075,0.10117 -0.90621,-0.0524 -1.09375,-0.28125 -0.0412,-0.0503 -0.84375,0.0625 -0.84375,0.0625 0,0 0.60714,-0.51438 1.25,-0.25 0.46823,0.19256 1.62805,0.0777 2.1875,0.0937 0.91924,1.68572 1.77392,1.62391 1.90625,1.65625 0.52933,0.12935 0.85949,0.92252 0.625,0.0312 -0.37521,-1.3132 -2.15646,-3.78044 -1.78125,-5.28125 0.0938,-0.5628 1.11442,-0.39487 1.0625,-0.75 0.0519,-0.55213 -1.02142,-0.29278 -1.75,-1.84375 -0.46899,-0.7504 -0.28095,-1.68715 -0.84375,-2.34375 -1.59462,-1.96981 -1.15533,-1.31195 -2.84375,-2.34375 -0.3752,-0.1876 -0.65604,-0.6562 -1.03125,-0.75 -0.18759,-0.0938 -0.37496,0.46885 -0.46875,0.28125 -0.5628,-1.40702 -1.43745,-7.53034 -1.53125,-9.21875 0,-0.5628 0.0945,-1.65595 0.1875,-2.21875 0,-0.15926 -0.0306,-0.80953 -0.125,-1 -0.2814,-0.37521 -0.78105,-0.59354 -1.15625,-0.96875 -0.32831,-0.37521 -0.82583,-1.03351 -1.375,-3.03125 -0.29252,-1.06411 -1.2342,-0.89049 -1.5625,-1.125 -0.37521,-0.37521 -1.59223,-1.59834 -2.71875,-2.03125 -0.37521,0.1876 -0.81229,0.62485 -1.1875,0.90625 -0.84421,0.5628 -1.21835,-0.34365 -1.96875,-0.53125 -0.65661,-0.0938 -0.56215,0.15642 -1.21875,-0.125 -4.10143,-2.54198 -1.41213,-0.92467 0.125,-0.65625 2.76153,0.48223 1.3689,-1.25164 3.75,-1.46875 0.40249,0.52452 1.37318,-0.0957 2.25,-0.625 -0.61613,-0.61079 -1.1561,-0.43716 -1.4375,-1.09375 -0.0821,-0.24623 0.37186,-0.68169 0.375,-1.03125 L 218,251.34375 c -0.65659,0.0938 -1.28085,0.3437 -2.03125,0.4375 -0.28141,0.0938 -0.6564,0.0626 -0.375,-0.125 0.59798,-0.45728 0.61456,-0.66387 1.0625,-0.6875 0.43855,-0.0231 0.77071,0.0609 1.28125,0.125 l 0.5,-0.0625 c 0.24863,0.0146 0.66552,-0.18855 0.96875,-0.21875 0.20109,-0.0203 1.23237,-0.62394 1.46875,-0.9375 0.23638,-0.31354 -0.3109,-0.32044 -0.1875,-0.53125 0.24679,-0.42164 0.0979,-0.24636 0.46875,-0.8125 0.3708,-0.56613 1.14849,-0.65614 1.625,-1.1875 0.47651,-0.53138 0.67131,-1.50041 0.9375,-1.875 0.50145,-0.70563 1.02691,-1.00467 0.9375,-2.0625 0.0938,-0.469 0.4686,-0.99979 0.75,-1.375 l 1.71875,-1.75 c 0.1876,-0.5628 0.14586,-1.15595 -0.15625,-1.71875 -0.69691,-1.37312 -2.37128,-1.10611 -3.65625,-1.3125 -1.28496,-0.2064 -1.89019,-0.45299 -2.6875,-0.6875 -0.3283,-0.0938 -0.75257,0.4954 -1.71875,-0.0937 -0.80021,-0.48836 -0.7342,-0.7656 -1.0625,-0.8125 -1.31321,-0.2814 -2.87444,0.8437 -3.90625,0.9375 -0.5628,0 -0.81224,-0.2813 -1.28125,-0.1875 0.11274,0.0492 0.47659,0.17179 0.40625,0.3125 -0.11725,0.1407 -1.40376,0.90736 -1.8125,0.65625 -0.20437,-0.12555 2.05462,-1.37516 2.125,-1.78125 0.0176,-0.10153 -0.70018,-0.0342 -0.9375,-0.0937 -0.23731,-0.0599 0.0215,-0.25395 -0.25,-0.21875 -0.54257,0.0704 -0.94563,0.36768 -1.03125,0.40625 -0.54895,0.24725 -0.13355,-0.31586 0.21875,-0.65625 0.2814,-0.6566 0.5309,0.2189 1.1875,-0.0625 0.2814,-0.0938 0.59354,-0.3438 0.96875,-0.25 0.18761,0 -0.18731,0.46875 0,0.46875 0.46899,-0.0938 1.0311,-0.93735 1.3125,-1.21875 0.37521,-0.2814 1.2942,-0.60955 0.875,-0.59375 -1.3974,0.0527 -2.85868,0.66778 -2.8125,-0.15625 0.3969,-0.47176 0.53825,0.11957 0.96875,-0.1875 0.31241,-0.26521 -0.34895,-0.74049 0.96875,-1.40625 1.0662,-0.5387 0.83907,-0.76591 2.25,-1.28125 0.49345,-0.18023 1.04676,-1.34536 2.34375,-1.8125 0.43004,-0.15489 1.719,-0.46846 2.0625,-1.0625 0.7495,-1.29614 -0.31468,-1.09594 -0.1875,-1.46875 0.20315,-0.59553 1.64647,-1.96061 1.0625,-1.9375 -0.37995,0.015 -1.43475,-0.39852 -1.8125,-0.28125 -0.37776,0.11728 -0.0935,0.76564 -0.46875,0.71875 -0.22438,-0.0838 -0.96822,-0.45314 -1.625,-0.65625 -0.74872,-0.23154 -1.33493,0.29614 -1.75,0.21875 -0.83014,-0.15476 -0.4028,-0.34787 -0.96875,-0.40625 -1.13192,-0.11677 -1.06752,0.0312 -2.0625,0.21875 -0.37521,0.0938 -1.0625,0.71875 -1.0625,0.71875 0.27823,-0.62283 0.3318,-1.08798 0.125,-1.28125 -0.64832,-0.60589 -0.7473,0.0109 -1.125,-0.15625 -0.29442,-0.13025 -0.72169,-0.70523 -1.21875,-0.8125 -0.44921,-0.097 -0.73501,-0.47117 -0.84375,-0.4375 z m -18.59375,8.53125 c -0.17813,0.0607 -0.36819,0.2108 -0.5625,0.4375 -0.38864,0.45341 0.15653,0.44717 0.59375,1.0625 0.43721,0.61534 -0.007,0.67272 -0.25,1.09375 -0.24289,0.42102 -0.45738,0.99743 -0.78125,2.40625 -0.32386,1.40881 -0.28779,1.54887 0.34375,1.9375 0.63155,0.38864 0.77302,0.18381 0.5625,-0.15625 -0.21051,-0.34006 0.058,-0.45767 0.1875,-1.21875 0.12954,-0.76108 0.38665,-0.35227 0.5,-1 0.11335,-0.64773 -0.54035,-1.23949 -0.28125,-1.09375 0.25909,0.14573 0.52671,0.41534 0.65625,0.15625 0.12951,-0.25909 0.0244,-0.47926 0.21875,-0.625 0.19431,-0.14574 0.21676,-0.15907 0.71875,-0.96875 0.50198,-0.80967 -0.14525,-0.52216 -0.0312,-0.78125 0.11335,-0.25908 0.2929,0.16193 0.40625,0 0.11335,-0.16193 0.45937,-0.33579 0.28125,-0.5625 -0.17813,-0.2267 -0.38551,0.11335 -0.53125,0 -0.1457,-0.11336 0.0403,-0.45255 -0.21875,-0.46875 -0.21052,-0.0971 -0.33466,0.0301 -0.59375,0.0625 -0.25909,0.0324 -0.55454,0.13523 -0.78125,-0.15625 -0.11335,-0.14574 -0.25937,-0.18573 -0.4375,-0.125 z m 9.4375,3.59375 c -0.0941,0.0653 -0.44105,0.4446 -0.5625,0.6875 -0.16193,0.32386 -0.52784,0.42045 -0.625,0.90625 -0.0972,0.4858 -0.16193,0.71307 0,0.875 0.2591,0.16193 0.40625,-0.079 0.40625,-0.5 0,-0.42102 0.17841,-0.58239 0.4375,-0.90625 0.2591,-0.32387 0.18181,-0.77329 0.34375,-1 0.0405,-0.0567 0.0314,-0.0843 0,-0.0625 z m -5.65625,9.5625 c -0.12883,-0.0458 -0.44084,0.0616 -0.75,0.1875 -0.61832,0.25191 -1.39981,0.9833 -1.125,0.9375 0.27481,-0.0458 0.50692,0.10591 1.46875,-0.375 0.45801,-0.49236 0.53507,-0.7042 0.40625,-0.75 z m 1.5625,0.78125 c -0.43744,-0.007 -1.23059,0.40257 -1.5,1 0.60596,0.17642 1.2897,0.69454 1.46875,0.84375 0.1875,0.15625 -0.0781,0.20266 -0.46875,-0.0312 -0.32597,-0.19558 -0.55268,-0.22191 -0.78125,-0.1875 0.0984,0.15833 0.53518,0.29884 0.65625,0.53125 0.96661,0.0392 1.39203,-0.17627 1.40625,-0.0625 -0.33222,0.54025 -0.50577,0.35443 -1,0.375 -0.14219,0.12578 -0.10116,0.18815 -0.21875,0.25 0.006,0.12838 -0.3558,0.24631 -0.4375,0.3125 -0.0293,0.0325 -0.12299,0.2855 -0.0625,0.34375 0.0743,0.0515 0.49162,-0.012 0.625,0.0312 0.4375,0.14058 0.56467,-0.29879 0.8125,-0.0312 -0.0781,0.23438 -0.73438,0.34375 -1.59375,0.21875 -0.0141,0.0752 -0.11877,-0.0713 -0.15625,-0.0937 -0.39253,0.0536 -0.23472,-0.30311 -0.9375,0.0625 -0.16335,0.58839 0.2812,0.68745 0.375,0.78125 0.69043,0.0368 1.66421,-0.0265 2.15625,0.0312 0.97582,-0.3858 1.66666,-0.74306 1.375,-0.4375 -0.11284,0.11822 -0.28435,0.3347 -0.4375,0.53125 0.8956,0.0159 1.48575,-0.25876 2.15625,-1.46875 0.0639,-0.16517 -0.1953,-0.36103 -0.27367,-0.4394 -1.20163,-1.0419 -1.00682,-1.20073 -1.84911,-2.13604 -0.28564,-0.31718 -1.01449,-0.41936 -1.31472,-0.42456 z m 1.84375,6.8125 c -0.61832,0.1145 -2.0501,1.02099 -2.1875,1.25 -0.13741,0.22901 -0.1207,0.3917 0.0625,0.4375 0.18321,0.0458 0.24761,0.17915 -0.1875,0.15625 -0.43512,-0.0229 -0.61259,0.3001 -0.75,0.4375 -0.13741,0.13741 -0.33325,0.14146 -0.21875,-0.15625 0.11451,-0.29771 0.0475,-0.57061 -0.59375,-0.25 -0.55635,0.27818 -0.91401,0.47569 -1.03125,0.65625 0.0401,-0.12023 0.0959,-0.2803 0.1875,-0.40625 0.1832,-0.25191 -0.13144,-0.15141 -0.40625,0.0312 -0.2748,0.1832 -0.56059,-0.0122 -0.8125,0.46875 -0.25191,0.48092 0.1851,0.52314 -0.25,0.84375 -0.43511,0.32061 -0.61236,0.7667 -0.40625,0.8125 0.2061,0.0458 0.72304,-0.0835 0.90625,-0.3125 0.1832,-0.22901 0.25024,-0.57085 0.59375,-0.59375 0.34352,-0.0229 0.62261,0.13764 0.1875,0.34375 -0.43511,0.2061 -0.72066,0.2834 -0.46875,0.375 0.2519,0.0916 0.61236,0.31894 0.40625,0.59375 -0.20612,0.2748 -0.54175,0.25024 -0.65625,0.59375 -0.11451,0.34351 0.19394,0.57705 0.46875,0.53125 0.27481,-0.0458 0.20229,-0.5291 0.5,-0.4375 0.29771,0.0916 0.80439,0.14362 1.125,-0.0625 0.32061,-0.20611 0.375,-0.57729 0.375,-0.875 0,-0.29771 0.0124,-0.23569 -0.125,-0.625 -0.1374,-0.38931 -0.32467,-0.70181 0.15625,-0.3125 0.48091,0.38931 0.58135,0.40815 0.71875,0.15625 0.13741,-0.2519 0.12931,-0.3793 0.3125,-0.5625 0.89313,-0.98473 1.67939,-2.01479 2,-2.3125 0.32061,-0.29771 0.71262,-0.89576 0.0937,-0.78125 z m 1.90625,5.6875 c -0.26524,0.0492 -0.54962,0.31655 -0.75,0.53125 -0.32061,0.34351 -0.38526,0.81895 -0.15625,1.09375 0.22901,0.27481 -0.20205,0.30438 -0.15625,0.625 0.0458,0.32061 0.0127,0.14193 0.21875,0.53125 0.48092,0.73283 0.44824,0.65839 0.90625,0.75 0.45802,0.0916 0.7271,0.15983 0.75,-0.6875 0.0229,-0.84732 -0.23175,-0.66913 -0.0937,-1.21875 0.13741,-0.54961 0.11641,-0.87953 -0.25,-1.40625 -0.13741,-0.19752 -0.30961,-0.24827 -0.46875,-0.21875 z m 0.34375,29.21875 c -0.15417,-0.0165 -0.2941,-0.002 -0.375,0.0312 -0.76532,0.31271 -0.72165,0.571 -0.71875,1.03125 0.008,1.19627 0.47641,1.64791 1.0625,2.375 0,0 2.78825,-1.28611 2.71875,-1.46875 -0.17652,-0.46388 -0.22555,-0.45477 -1.0625,-0.125 -0.10107,0.0398 -0.34704,-0.50604 -0.34375,-1.34375 -0.15029,-0.2213 -0.81873,-0.45054 -1.28125,-0.5 z m -1.75,0.84375 c -0.0283,0.0112 -0.0745,0.051 -0.0937,0.0937 -0.0781,0.17187 0.0468,0.28125 0.125,0.375 0.23437,0.17187 0.0625,0.45313 0.3125,0.53125 0.25,0.0781 0.3125,0.14063 0.28125,-0.0625 -0.0312,-0.20312 -0.14062,-0.57812 -0.3125,-0.75 -0.1289,-0.1289 -0.22754,-0.22119 -0.3125,-0.1875 z m 36.4375,29.25 c -0.2466,0.10383 -0.35384,0.35194 -0.25,0.46875 0.3115,0.40236 0.52936,0.32068 0.75,0.4375 0.22065,0.11681 0.85333,0.23842 0.59375,-0.125 -0.25959,-0.36341 -0.84714,-0.88508 -1.09375,-0.78125 z m -17.0625,6.03125 c -0.11032,-0.0114 -0.22335,0.0813 -0.4375,0.25 -0.42832,0.33744 -0.50489,0.0866 -1.21875,0.28125 -0.16873,0.0519 -0.38608,0.15675 -0.59375,0.3125 -0.20766,0.15575 0.42312,0.15146 0.8125,0.28125 0.38937,0.12979 0.72504,0.69909 1.0625,1.0625 0.33746,0.36341 0.78175,0.15815 0.9375,-0.0625 0.15575,-0.22065 0.29862,-0.72935 0.84375,-0.78125 0.54512,-0.0519 0.0692,-0.47984 -0.28125,-0.6875 -0.35044,-0.20767 -0.59185,-0.13369 -0.8125,-0.40625 -0.11032,-0.13629 -0.20218,-0.23864 -0.3125,-0.25 z"
         transform="matrix(15.278846,0,0,15.278846,1528.1923,161)"
         id="gb-gbn"
         style="fill:#c0c0c0;stroke:#ffffff;stroke-width:0.40000001;stroke-miterlimit:4;stroke-opacity:1;stroke-dasharray:none" />
    </g>
  </g>
</svg>
